PathFileType	4	(X/Y/Z)	CPRIT_Patient3_R_HipIso_Processed.TRC
DataRate	CameraRate	NumFrames	NumMarkers	Units	OrigDataRate	OrigDataStartFrame	OrigNumFrames
150.128314798973	150.128314798973	4	39	m	150.128314798973	732	       1171
Frame#	Time	R.Heel			R.Midfoot.Superior			R.Midfoot.Lateral			R.Toe			L.Heel			L.Midfoot.Superior			L.Midfoot.Lateral			L.Toe			R.Shank.Superior			R.Shank.Inferior			R.Shank.Lateral			R.Shank.Posterior			L.Shank.Superior			L.Shank.Inferior			L.Shank.Posterior			L.Shank.Lateral			R.Patella			L.Patella			R.Thigh.Superior			R.Thigh.Lateral			R.Thigh.Inferior			L.Thigh.Superior			L.Thigh.Inferior			L.Thigh.Lateral			L.Asis			R.Asis			Sacral			R.Shoulder			L.Shoulder			C7			J.Notch			Sternum			Thoracic			L.Elbow			L.Wrist			R.Elbow			R.Wrist			R.PSIS			L.PSIS			
		X1	Y1	Z1	X2	Y2	Z2	X3	Y3	Z3	X4	Y4	Z4	X5	Y5	Z5	X6	Y6	Z6	X7	Y7	Z7	X8	Y8	Z8	X9	Y9	Z9	X10	Y10	Z10	X11	Y11	Z11	X12	Y12	Z12	X13	Y13	Z13	X14	Y14	Z14	X15	Y15	Z15	X16	Y16	Z16	X17	Y17	Z17	X18	Y18	Z18	X19	Y19	Z19	X20	Y20	Z20	X21	Y21	Z21	X22	Y22	Z22	X23	Y23	Z23	X24	Y24	Z24	X25	Y25	Z25	X26	Y26	Z26	X27	Y27	Z27	X28	Y28	Z28	X29	Y29	Z29	X30	Y30	Z30	X31	Y31	Z31	X32	Y32	Z32	X33	Y33	Z33	X34	Y34	Z34	X35	Y35	Z35	X36	Y36	Z36	X37	Y37	Z37	X38	Y38	Z38	X39	Y39	Z39	

732	4.869168091168	1.013421423294	0.134236537044	0.139185319339	1.133994771918	0.257282907232	0.182121129332	1.067718387583	0.163073974021	0.212620715016	1.249865466794	0.271715794140	0.227690078782	0.720516853285	0.042628011793	-0.221912251261	0.890826930585	0.096530314873	-0.215163669327	0.806638372285	0.033040048679	-0.268713467271	1.007875290634	0.057720238282	-0.204389478725	1.003324404702	0.481007494759	0.121642005123	1.037606219619	0.367037841221	0.146583237128	0.942172008745	0.398774140783	0.172097916442	0.880238473213	0.421185342551	0.090320844158	0.840925532609	0.368891943053	-0.239891608231	0.834675028649	0.239118925645	-0.234348336816	0.707620751093	0.339145451546	-0.269890171117	0.791042357285	0.278955697251	-0.305542778318	0.983418536908	0.599943848922	0.078993722584	0.860209993122	0.480057552215	-0.232390320334	0.870117244875	0.874608803818	0.029538000946	0.817250092037	0.791009884510	0.080309951084	0.937531923859	0.740393726058	0.031978898696	0.907297921456	0.775657773581	-0.246361818310	0.887361185817	0.617751178890	-0.228204251213	0.822792488776	0.706657987597	-0.318937608775	0.896478858529	0.933472790298	-0.235619428342	0.814287721018	0.980850549539	-0.013795802737	0.680939739898	1.005686946144	-0.185689906174	0.759611832029	1.407354868641	-0.001735073356	0.892740156003	1.447982464310	-0.300682945325	0.781797914835	1.473633528126	-0.144125268790	0.900993721313	1.378529293393	-0.123669314780	0.938934415958	1.193806314779	-0.122174582288	0.701343191339	1.340241562499	-0.185900468029	0.890095428892	1.168622701097	-0.483035518712	1.060789036013	0.973418288029	-0.485357024033	0.750286385681	1.148231634238	0.215433162717	0.844038741423	0.989336799428	0.398843949258	0.669573031006	1.011130491721	-0.150723758451	0.693860850778	1.001134021762	-0.220643811665	
733	4.875829059829	1.004923627946	0.130902104438	0.136148654666	1.126829708827	0.252457921181	0.179558879761	1.059526107952	0.158891650727	0.209713598691	1.242848199404	0.265476303678	0.225191580710	0.720513872068	0.042624489566	-0.221919772065	0.890813391153	0.096540454815	-0.215170799073	0.806635671404	0.033034730030	-0.268720403458	1.007863746751	0.057751463381	-0.204385917273	0.998719028822	0.477820917905	0.119932444136	1.031721303639	0.363402188773	0.144420158029	0.936644620220	0.396103152014	0.170079984510	0.874930205340	0.419494665494	0.088423927586	0.840766802093	0.369043609655	-0.239731341503	0.834615878105	0.239147347726	-0.234378716270	0.707546527965	0.339117980555	-0.270106299880	0.791020801508	0.278943199950	-0.305652563131	0.980081968592	0.597208038711	0.077801119341	0.860094895403	0.480047050930	-0.232489607977	0.869048739665	0.873256399612	0.029313110847	0.815521145376	0.789715367240	0.079625147565	0.935517364462	0.738333618141	0.031443235165	0.907233987160	0.775482972257	-0.246201346045	0.887088029822	0.617770129746	-0.228387990106	0.822426909960	0.706470861250	-0.319123672502	0.896562191154	0.933238267166	-0.235455441268	0.813844415553	0.980550291801	-0.013867206402	0.681017140439	1.005965032212	-0.186060890110	0.760081749286	1.407313192018	-0.001711096775	0.893641564229	1.447957908485	-0.300464430035	0.782554948813	1.473681403851	-0.143999463641	0.901563013720	1.378354640853	-0.123514663904	0.939160469280	1.193573419404	-0.122017676397	0.701984836511	1.340402185240	-0.186114509688	0.890488355316	1.168856713425	-0.483202866731	1.060858905539	0.973405033305	-0.485372009771	0.750381109858	1.148195579398	0.215320513511	0.844011295453	0.989325902986	0.398810454191	0.669600015841	1.011419770439	-0.151102573175	0.694016942742	1.001400266345	-0.221000789258	
734	4.882490028490	0.996415883874	0.127649489128	0.133064591640	1.119630137854	0.247705480902	0.176960664415	1.051309243444	0.154787346413	0.206761406763	1.235780679457	0.259310442994	0.222657929508	0.720511071823	0.042621321322	-0.221927115526	0.890801108652	0.096549443562	-0.215177846347	0.806633253279	0.033029815861	-0.268726691207	1.007852959937	0.057782048437	-0.204381374483	0.994093034740	0.474677354436	0.118196731484	1.025811468127	0.359823739282	0.142225148978	0.931100234271	0.393481420646	0.168033480012	0.869617261480	0.417854669526	0.086501615431	0.840628039023	0.369182288064	-0.239582677212	0.834570892773	0.239175618917	-0.234398067681	0.707484005494	0.339095210586	-0.270314051142	0.791009636022	0.278932727798	-0.305753803586	0.976728537931	0.594503759323	0.076591275095	0.859995008714	0.480039014861	-0.232570376672	0.867947895007	0.871901847395	0.029082833989	0.813768030874	0.788427428173	0.078946302784	0.933484185469	0.736290124889	0.030909932437	0.907193389680	0.775315738622	-0.246006808114	0.886822494416	0.617793126221	-0.228556734397	0.822065502819	0.706281028945	-0.319297555430	0.896655614420	0.933011147733	-0.235283014240	0.813400647962	0.980260606242	-0.013933726238	0.681094825386	1.006235974081	-0.186429873413	0.760552004098	1.407273781861	-0.001684978238	0.894539036507	1.447935694348	-0.300245015088	0.783312454020	1.473733205947	-0.143870040782	0.902128658963	1.378178517827	-0.123360970833	0.939379692482	1.193340586587	-0.121861233428	0.702620974626	1.340565174729	-0.186331288492	0.890878750281	1.169092013733	-0.483370385822	1.060925821826	0.973392850077	-0.485385114238	0.750475201903	1.148159751263	0.215206958849	0.843983531870	0.989315093267	0.398776041953	0.669625838488	1.011702418741	-0.151480226646	0.694173032743	1.001659822442	-0.221356458259	
735	4.889150997151	0.987910633379	0.124481054755	0.129933661655	1.112405375056	0.243031169392	0.174327176030	1.043078923630	0.150764747864	0.203764789851	1.228671500937	0.253226436930	0.220090784749	0.720508464767	0.042618520061	-0.221934257535	0.890790139504	0.096557208655	-0.215184757910	0.806631141647	0.033025309953	-0.268732304444	1.007843065204	0.057811793492	-0.204375780194	0.989450773942	0.471579188699	0.116434927340	1.019883474309	0.356305503884	0.139998680416	0.925544938585	0.390909799216	0.165958279961	0.864305888864	0.416265000713	0.084553410619	0.840510153281	0.369306675324	-0.239447350197	0.834540798184	0.239203687755	-0.234405930750	0.707433861306	0.339077105533	-0.270513303197	0.791009492405	0.278924197015	-0.305846344134	0.973360724129	0.591832152885	0.075364214103	0.859910656082	0.480033197636	-0.232632392618	0.866816194483	0.870544971990	0.028847679659	0.811991458137	0.787146076715	0.078274763726	0.931433899619	0.734263556486	0.030378769112	0.907174758279	0.775156148737	-0.245781591444	0.886566879955	0.617819504873	-0.228708649095	0.821713905865	0.706090492709	-0.319458749995	0.896759611951	0.932791784244	-0.235102321667	0.812958139531	0.979981708699	-0.013995299197	0.681173233187	1.006499403917	-0.186796190493	0.761021901574	1.407237002342	-0.001656498750	0.895430822363	1.447916112701	-0.300024936608	0.784069058630	1.473789108713	-0.143736978434	0.902689701351	1.378001496445	-0.123208178011	0.939592029701	1.193108456391	-0.121705076347	0.703250654204	1.340730148702	-0.186550135480	0.891265214307	1.169328068055	-0.483536797426	1.060989350484	0.973381875888	-0.485396125071	0.750568366417	1.148124328517	0.215092870763	0.843955486187	0.989304404341	0.398740808272	0.669651023534	1.011978003894	-0.151856031086	0.694329389556	1.001912360813	-0.221710188056	
